<svg width="300" height="350" viewBox="0 0 250 325" xmlns="http://www.w3.org/2000/svg">
  <defs>
    <!-- Background gradient -->
    <linearGradient id="bg" x1="0" y1="0" x2="0" y2="1">
      <stop offset="0%" stop-color="#fff"/>
      <stop offset="100%" stop-color="#113"/>
    </linearGradient>
    <!-- Block bevel & gloss -->
    <filter id="bevel" x="-20%" y="-20%" width="140%" height="140%">
      <feGaussianBlur in="SourceAlpha" stdDeviation="1" result="blur"/>
      <feSpecularLighting in="blur" surfaceScale="3" specularConstant="0.6" specularExponent="25" lighting-color="#fff" result="spec">
        <fePointLight x="-3000" y="-7000" z="20000"/>
      </feSpecularLighting>
      <feComposite in="spec" in2="SourceAlpha" operator="in" result="specOut"/>
      <feComposite in="SourceGraphic" in2="specOut" operator="arithmetic" k1="1" k2="0" k3="1" k4="0"/>
    </filter>
    <!-- Drop shadow -->
    <filter id="shadow" x="-20%" y="-20%" width="140%" height="140%">
      <feDropShadow dx="2" dy="4" stdDeviation="1.5" flood-opacity="0.5"/>
    </filter>
    <!-- Block color gradients (more saturated) -->
    <linearGradient id="grad-red" x1="0" y1="0" x2="1" y2="1">
      <stop offset="0%" stop-color="#ff3b3b"/>
      <stop offset="100%" stop-color="#d20"/>
    </linearGradient>
    <linearGradient id="grad-blue" x1="0" y1="0" x2="1" y2="1">
      <stop offset="0%" stop-color="#5b7aff"/>
      <stop offset="100%" stop-color="#3245e5"/>
    </linearGradient>
    <linearGradient id="grad-yellow" x1="0" y1="0" x2="1" y2="1">
      <stop offset="0%" stop-color="#ffd642"/>
      <stop offset="100%" stop-color="#e6af00"/>
    </linearGradient>
    <linearGradient id="grad-green" x1="0" y1="0" x2="1" y2="1">
      <stop offset="0%" stop-color="#6fed6f"/>
      <stop offset="100%" stop-color="#28a228"/>
    </linearGradient>
  </defs>
  <!-- Background -->
  <rect width="250" height="325" fill="url(#bg)" rx="8" ry="8"/>
  <!-- Subtle grid lines -->
  <g fill="none" stroke="#2a3440" stroke-width="1">
    <defs><rect id="cell" width="50" height="50"/></defs>
    <use href="#cell" x="0" y="75"/>
    <use href="#cell" x="50" y="75"/>
    <use href="#cell" x="100" y="75"/>
    <use href="#cell" x="150" y="75"/>
    <use href="#cell" x="200" y="75"/>
    <use href="#cell" x="0" y="125"/>
    <use href="#cell" x="50" y="125"/>
    <use href="#cell" x="100" y="125"/>
    <use href="#cell" x="150" y="125"/>
    <use href="#cell" x="200" y="125"/>
    <use href="#cell" x="0" y="175"/>
    <use href="#cell" x="50" y="175"/>
    <use href="#cell" x="100" y="175"/>
    <use href="#cell" x="150" y="175"/>
    <use href="#cell" x="200" y="175"/>
  </g>
  <!-- 1) L-shape Red -->
  <g filter="url(#shadow)" transform="translate(0,-200)">
    <rect width="50" height="50" x="0" y="75" fill="url(#grad-red)" filter="url(#bevel)"/>
    <rect width="50" height="50" x="0" y="125" fill="url(#grad-red)" filter="url(#bevel)"/>
    <rect width="50" height="50" x="0" y="175" fill="url(#grad-red)" filter="url(#bevel)"/>
    <rect width="50" height="50" x="50" y="175" fill="url(#grad-red)" filter="url(#bevel)"/>
    <animateTransform attributeName="transform" type="translate" from="0,-200" to="0,0" dur="1.2s" begin="0s" calcMode="linear" fill="freeze"/>
  </g>
  <!-- 2) T-shape Blue -->
  <g filter="url(#shadow)" transform="translate(0,-250)">
    <rect width="50" height="50" x="100" y="175" fill="url(#grad-blue)" filter="url(#bevel)"/>
    <rect width="50" height="50" x="150" y="175" fill="url(#grad-blue)" filter="url(#bevel)"/>
    <rect width="50" height="50" x="200" y="175" fill="url(#grad-blue)" filter="url(#bevel)"/>
    <rect width="50" height="50" x="150" y="75" fill="url(#grad-blue)" filter="url(#bevel)"/>
    <rect width="50" height="50" x="150" y="125" fill="url(#grad-blue)" filter="url(#bevel)"/>
    <animateTransform attributeName="transform" type="translate" from="0,-250" to="0,0" dur="1.2s" begin="1.2s" calcMode="linear" fill="freeze"/>
  </g>
  <!-- 3) Square Yellow -->
  <g filter="url(#shadow)" transform="translate(0,-250)">
    <rect width="50" height="50" x="50" y="75" fill="url(#grad-yellow)" filter="url(#bevel)"/>
    <rect width="50" height="50" x="100" y="75" fill="url(#grad-yellow)" filter="url(#bevel)"/>
    <rect width="50" height="50" x="50" y="125" fill="url(#grad-yellow)" filter="url(#bevel)"/>
    <rect width="50" height="50" x="100" y="125" fill="url(#grad-yellow)" filter="url(#bevel)"/>
    <animateTransform attributeName="transform" type="translate" from="0,-250" to="0,0" dur="1.2s" begin="2.4s" calcMode="linear" fill="freeze"/>
  </g>
  <!-- 4) I-shape Green -->
  <g filter="url(#shadow)" transform="translate(0,-250)">
    <rect width="50" height="50" x="200" y="75" fill="url(#grad-green)" filter="url(#bevel)"/>
    <rect width="50" height="50" x="200" y="125" fill="url(#grad-green)" filter="url(#bevel)"/>
    <animateTransform attributeName="transform" type="translate" from="0,-250" to="0,0" dur="1.2s" begin="3.6s" calcMode="linear" fill="freeze"/>
  </g>
  <!-- Fade & loop -->
  <animate attributeName="opacity" values="1;1;0;1" keyTimes="0;0.85;0.9;1" dur="6s" repeatCount="indefinite"/>
</svg>
